<svg xmlns="http://www.w3.org/2000/svg" viewBox="0 0 512 512" width="100%" height="100%">
  <defs>
    <linearGradient id="grad" x1="0%" y1="0%" x2="100%" y2="100%">
      <stop offset="0%" style="stop-color:#6366F1;stop-opacity:1" />
      <stop offset="100%" style="stop-color:#38BDF8;stop-opacity:1" />
    </linearGradient>
    <clipPath id="circle-clip">
      <circle cx="256" cy="256" r="240" />
    </clipPath>
  </defs>
  
  <!-- Fondo circular oscuro -->
  <circle cx="256" cy="256" r="256" fill="#0F172A" />
  
  <!-- Círculo interior con gradiente -->
  <circle cx="256" cy="256" r="240" fill="url(#grad)" opacity="0.15" stroke="url(#grad)" stroke-width="8" />
  
  <g transform="translate(128, 128) scale(0.5)">
    <!-- Icono de Huella / Seguridad -->
    <path d="M256 0C114.6 0 0 114.6 0 256s114.6 256 256 256 256-114.6 256-256S397.4 0 256 0zm0 464c-114.7 0-208-93.3-208-208S141.3 48 256 48s208 93.3 208 208-93.3 208-208 208z" fill="url(#grad)"/>
    <path d="M256 80c-97.1 0-176 78.9-176 176s78.9 176 176 176 176-78.9 176-176S353.1 80 256 80zm0 304c-70.6 0-128-57.4-128-128s57.4-128 128-128 128 57.4 128 128-57.4 128-128 128z" fill="url(#grad)"/>
    <!-- Escáner QR / Checkmark -->
    <path d="M224 200h64v64h-64zm-32-32v128h128V168H192zm64 120c-30.9 0-56-25.1-56-56s25.1-56 56-56 56 25.1 56 56-25.1 56-56 56z" fill="#FFFFFF"/>
  </g>
  
  <!-- Checkmark de asistencia -->
  <path d="M360 220 L230 350 L160 280" fill="none" stroke="#10B981" stroke-width="32" stroke-linecap="round" stroke-linejoin="round" />
</svg>
